<svg version="1.1" xmlns="http://www.w3.org/2000/svg" xmlns:xlink="http://www.w3.org/1999/xlink" width="461" height="376"><defs/><g><g transform="translate(-214,-94) scale(1,1)"><rect fill="#C0C0C0" stroke="none" x="369" y="295" width="134" height="44" opacity="0.2"/></g><g transform="translate(-214,-94) scale(1,1)"><rect fill="#ffffff" stroke="none" x="362" y="288" width="134" height="44"/></g><g transform="translate(-214,-94) scale(1,1)"><path fill="none" stroke="#000000" d="M 362 288 L 496 288 L 496 332 L 362 332 L 362 288 Z Z" stroke-miterlimit="10"/></g><g transform="translate(-214,-94) scale(1,1)"><rect fill="#ffffff" stroke="none" x="352" y="295" width="20" height="10"/></g><g transform="translate(-214,-94) scale(1,1)"><path fill="none" stroke="#000000" d="M 352 295 L 372 295 L 372 305 L 352 305 L 352 295 Z Z" stroke-miterlimit="10"/></g><g transform="translate(-214,-94) scale(1,1)"><rect fill="#ffffff" stroke="none" x="352" y="315" width="20" height="10"/></g><g transform="translate(-214,-94) scale(1,1)"><path fill="none" stroke="#000000" d="M 352 315 L 372 315 L 372 325 L 352 325 L 352 315 Z Z" stroke-miterlimit="10"/></g><g transform="translate(-214,-94) scale(1,1)"><g><path fill="none" stroke="none"/><text fill="#000000" stroke="none" font-family="Arial" font-size="13px" font-style="normal" font-weight="bold" text-decoration="none" x="389.207763671875" y="307.5">OrderController</text></g></g><g transform="translate(-214,-94) scale(1,1)"><rect fill="#C0C0C0" stroke="none" x="241" y="423" width="195.2490234375" height="44" opacity="0.2"/></g><g transform="translate(-214,-94) scale(1,1)"><rect fill="#ffffff" stroke="none" x="234" y="416" width="195.2490234375" height="44"/></g><g transform="translate(-214,-94) scale(1,1)"><path fill="none" stroke="#000000" d="M 234 416 L 429.2490234375 416 L 429.2490234375 460 L 234 460 L 234 416 Z Z" stroke-miterlimit="10"/></g><g transform="translate(-214,-94) scale(1,1)"><rect fill="#ffffff" stroke="none" x="224" y="423" width="20" height="10"/></g><g transform="translate(-214,-94) scale(1,1)"><path fill="none" stroke="#000000" d="M 224 423 L 244 423 L 244 433 L 224 433 L 224 423 Z Z" stroke-miterlimit="10"/></g><g transform="translate(-214,-94) scale(1,1)"><rect fill="#ffffff" stroke="none" x="224" y="443" width="20" height="10"/></g><g transform="translate(-214,-94) scale(1,1)"><path fill="none" stroke="#000000" d="M 224 443 L 244 443 L 244 453 L 224 453 L 224 443 Z Z" stroke-miterlimit="10"/></g><g transform="translate(-214,-94) scale(1,1)"><g><path fill="none" stroke="none"/><text fill="#000000" stroke="none" font-family="Arial" font-size="13px" font-style="normal" font-weight="bold" text-decoration="none" x="254.98095703125" y="435.5">CustomerToBusinessRouter</text></g></g><g transform="translate(-214,-94) scale(1,1)"><rect fill="#C0C0C0" stroke="none" x="505" y="423" width="98.44091796875" height="44" opacity="0.2"/></g><g transform="translate(-214,-94) scale(1,1)"><rect fill="#ffffff" stroke="none" x="498" y="416" width="98.44091796875" height="44"/></g><g transform="translate(-214,-94) scale(1,1)"><path fill="none" stroke="#000000" d="M 498 416 L 596.44091796875 416 L 596.44091796875 460 L 498 460 L 498 416 Z Z" stroke-miterlimit="10"/></g><g transform="translate(-214,-94) scale(1,1)"><rect fill="#ffffff" stroke="none" x="488" y="423" width="20" height="10"/></g><g transform="translate(-214,-94) scale(1,1)"><path fill="none" stroke="#000000" d="M 488 423 L 508 423 L 508 433 L 488 433 L 488 423 Z Z" stroke-miterlimit="10"/></g><g transform="translate(-214,-94) scale(1,1)"><rect fill="#ffffff" stroke="none" x="488" y="443" width="20" height="10"/></g><g transform="translate(-214,-94) scale(1,1)"><path fill="none" stroke="#000000" d="M 488 443 L 508 443 L 508 453 L 488 453 L 488 443 Z Z" stroke-miterlimit="10"/></g><g transform="translate(-214,-94) scale(1,1)"><g><path fill="none" stroke="none"/><text fill="#000000" stroke="none" font-family="Arial" font-size="13px" font-style="normal" font-weight="bold" text-decoration="none" x="520.06640625" y="435.5">Messenger</text></g></g><g transform="translate(-214,-94) scale(1,1)"><path fill="none" stroke="#000000" d="M 406 333 L 344 415" stroke-miterlimit="10" stroke-dasharray="3"/></g><g transform="translate(-214,-94) scale(1,1)"><path fill="none" stroke="#000000" d="M 346.7714321831808 404.35485257715845 L 344 415 L 353.4869544197475 409.43244256090406" stroke-miterlimit="10"/></g><g transform="translate(-214,-94) scale(1,1)"><path fill="none" stroke="#000000" d="M 445 333 L 521 415" stroke-miterlimit="10" stroke-dasharray="3"/></g><g transform="translate(-214,-94) scale(1,1)"><path fill="none" stroke="#000000" d="M 511.00438487185613 410.4078677926238 L 521 415 L 517.1791605846995 404.6849049368178" stroke-miterlimit="10"/></g><g transform="translate(-214,-94) scale(1,1)"><path fill="#C0C0C0" stroke="none" d="M 498.942626953125 122.5 C 498.942626953125 116.1487248 504.091351753125 111 510.442626953125 111 C 516.793902153125 111 521.942626953125 116.1487248 521.942626953125 122.5 C 521.942626953125 128.8512752 516.793902153125 134 510.442626953125 134 C 504.091351753125 134 498.942626953125 128.8512752 498.942626953125 122.5 Z" opacity="0.2"/></g><g transform="translate(-214,-94) scale(1,1)"><path fill="#ffffff" stroke="none" d="M 491.942626953125 115.5 C 491.942626953125 109.1487248 497.091351753125 104 503.442626953125 104 C 509.793902153125 104 514.942626953125 109.1487248 514.942626953125 115.5 C 514.942626953125 121.8512752 509.793902153125 127 503.442626953125 127 C 497.091351753125 127 491.942626953125 121.8512752 491.942626953125 115.5 Z"/></g><g transform="translate(-214,-94) scale(1,1)"><path fill="none" stroke="#000000" d="M 491.942626953125 115.5 C 491.942626953125 109.1487248 497.091351753125 104 503.442626953125 104 C 509.793902153125 104 514.942626953125 109.1487248 514.942626953125 115.5 C 514.942626953125 121.8512752 509.793902153125 127 503.442626953125 127 C 497.091351753125 127 491.942626953125 121.8512752 491.942626953125 115.5 Z" stroke-miterlimit="10"/></g><g transform="translate(-214,-94) scale(1,1)"><path fill="none" stroke="#000000" d="M 368 152 L 638.88525390625 152" stroke-miterlimit="10"/></g><g transform="translate(-214,-94) scale(1,1)"><g><path fill="none" stroke="none"/><text fill="#000000" stroke="none" font-family="Arial" font-size="13px" font-style="normal" font-weight="bold" text-decoration="none" x="452.861328125" y="146.5">OrderingInterface</text></g></g><g transform="translate(-214,-94) scale(1,1)"><g><path fill="none" stroke="none"/><text fill="#000000" stroke="none" font-family="Arial" font-size="13px" font-style="normal" font-weight="normal" text-decoration="none" x="373" y="169.5">+AnounceOrder(OrderType, Business = 0)</text></g></g><g transform="translate(-214,-94) scale(1,1)"><g><path fill="none" stroke="none"/><text fill="#000000" stroke="none" font-family="Arial" font-size="13px" font-style="normal" font-weight="normal" text-decoration="none" x="373" y="184.5">+ReplyOrderResult(JSON_Result, Customer)</text></g></g><g transform="translate(-214,-94) scale(1,1)"><path fill="#ffffff" stroke="none" d="M 566 288 L 654 288 L 664 298 L 664 336 L 566 336 L 566 288"/></g><g transform="translate(-214,-94) scale(1,1)"><path fill="none" stroke="#000000" d="M 566 288 L 654 288 L 664 298 L 664 336 L 566 336 L 566 288 L 566 288" stroke-miterlimit="10"/></g><g transform="translate(-214,-94) scale(1,1)"><path fill="none" stroke="#000000" d="M 654 288 L 654 298 L 664 298 L 654 288" stroke-miterlimit="10"/></g><g transform="translate(-214,-94) scale(1,1)"><g><path fill="none" stroke="none"/><text fill="#000000" stroke="none" font-family="Arial" font-size="13px" font-style="normal" font-weight="normal" text-decoration="none" x="571" y="306">REST API</text></g></g><g transform="translate(-214,-94) scale(1,1)"><g><path fill="none" stroke="none"/><text fill="#000000" stroke="none" font-family="Arial" font-size="13px" font-style="normal" font-weight="normal" text-decoration="none" x="571" y="321">stateless</text></g></g><g transform="translate(-214,-94) scale(1,1)"><path fill="none" stroke="#000000" d="M 497 311 L 565 311" stroke-miterlimit="10" stroke-dasharray="3"/></g><g transform="translate(-214,-94) scale(1,1)"><path fill="none" stroke="#000000" d="M 435 287 L 499.6842105263158 127" stroke-miterlimit="10"/></g></g></svg>