<svg version="1.1" xmlns="http://www.w3.org/2000/svg" xmlns:xlink="http://www.w3.org/1999/xlink" width="952.95361328125" height="677"><defs/><g><g transform="translate(-62,-14) scale(1,1)"><path fill="#C0C0C0" stroke="none" d="M 129 119 L 258 119 Q 268 119 268 129 L 268 149 Q 268 159 258 159 L 129 159 Q 119 159 119 149 L 119 129 Q 119 119 129 119 Z" opacity="0.2"/></g><g transform="translate(-62,-14) scale(1,1)"><path fill="#ffffff" stroke="none" d="M 122 112 L 251 112 Q 261 112 261 122 L 261 142 Q 261 152 251 152 L 122 152 Q 112 152 112 142 L 112 122 Q 112 112 122 112 Z"/></g><g transform="translate(-62,-14) scale(1,1)"><path fill="none" stroke="#000000" d="M 122 112 L 251 112 Q 261 112 261 122 L 261 142 Q 261 152 251 152 L 122 152 Q 112 152 112 142 L 112 122 Q 112 112 122 112 Z" stroke-miterlimit="10"/></g><g transform="translate(-62,-14) scale(1,1)"><g><path fill="none" stroke="none"/><text fill="#000000" stroke="none" font-family="Arial" font-size="13px" font-style="normal" font-weight="bold" text-decoration="none" x="121.5" y="131.5">用户微信号：发起预约</text></g></g><g transform="translate(-62,-14) scale(1,1)"><path fill="#C0C0C0" stroke="none" d="M 329 111 L 458 111 Q 468 111 468 121 L 468 141 Q 468 151 458 151 L 329 151 Q 319 151 319 141 L 319 121 Q 319 111 329 111 Z" opacity="0.2"/></g><g transform="translate(-62,-14) scale(1,1)"><path fill="#ffffff" stroke="none" d="M 322 104 L 451 104 Q 461 104 461 114 L 461 134 Q 461 144 451 144 L 322 144 Q 312 144 312 134 L 312 114 Q 312 104 322 104 Z"/></g><g transform="translate(-62,-14) scale(1,1)"><path fill="none" stroke="#000000" d="M 322 104 L 451 104 Q 461 104 461 114 L 461 134 Q 461 144 451 144 L 322 144 Q 312 144 312 134 L 312 114 Q 312 104 322 104 Z" stroke-miterlimit="10"/></g><g transform="translate(-62,-14) scale(1,1)"><g><path fill="none" stroke="none"/><text fill="#000000" stroke="none" font-family="Arial" font-size="13px" font-style="normal" font-weight="bold" text-decoration="none" x="321.5" y="123.5">车主公众号：转发消息</text></g></g><g transform="translate(-62,-14) scale(1,1)"><path fill="#C0C0C0" stroke="none" d="M 79 136.5 C 79 131.2532944 83.2532944 127 88.5 127 C 93.7467056 127 98 131.2532944 98 136.5 C 98 141.7467056 93.7467056 146 88.5 146 C 83.2532944 146 79 141.7467056 79 136.5 Z" opacity="0.2"/></g><g transform="translate(-62,-14) scale(1,1)"><path fill="#000000" stroke="none" d="M 72 129.5 C 72 124.2532944 76.2532944 120 81.5 120 C 86.7467056 120 91 124.2532944 91 129.5 C 91 134.7467056 86.7467056 139 81.5 139 C 76.2532944 139 72 134.7467056 72 129.5 Z"/></g><g transform="translate(-62,-14) scale(1,1)"><path fill="none" stroke="#000000" d="M 262 129 L 311 127" stroke-miterlimit="10"/></g><g transform="translate(-62,-14) scale(1,1)"><path fill="none" stroke="#000000" d="M 301.0174540568164 131.6204736220682 L 311 127 L 300.6741058396106 123.2084423005266" stroke-miterlimit="10"/></g><g transform="translate(-62,-14) scale(1,1)"><path fill="#C0C0C0" stroke="none" d="M 569 103 L 743.3818359375 103 Q 753.3818359375 103 753.3818359375 113 L 753.3818359375 133 Q 753.3818359375 143 743.3818359375 143 L 569 143 Q 559 143 559 133 L 559 113 Q 559 103 569 103 Z" opacity="0.2"/></g><g transform="translate(-62,-14) scale(1,1)"><path fill="#ffffff" stroke="none" d="M 562 96 L 736.3818359375 96 Q 746.3818359375 96 746.3818359375 106 L 746.3818359375 126 Q 746.3818359375 136 736.3818359375 136 L 562 136 Q 552 136 552 126 L 552 106 Q 552 96 562 96 Z"/></g><g transform="translate(-62,-14) scale(1,1)"><path fill="none" stroke="#000000" d="M 562 96 L 736.3818359375 96 Q 746.3818359375 96 746.3818359375 106 L 746.3818359375 126 Q 746.3818359375 136 736.3818359375 136 L 562 136 Q 552 136 552 126 L 552 106 Q 552 96 562 96 Z" stroke-miterlimit="10"/></g><g transform="translate(-62,-14) scale(1,1)"><g><path fill="none" stroke="none"/><text fill="#000000" stroke="none" font-family="Arial" font-size="13px" font-style="normal" font-weight="bold" text-decoration="none" x="563.9482421875" y="115.5">AppController：路由车行客服</text></g></g><g transform="translate(-62,-14) scale(1,1)"><path fill="none" stroke="#000000" d="M 462 122 L 551 119" stroke-miterlimit="10"/></g><g transform="translate(-62,-14) scale(1,1)"><path fill="none" stroke="#000000" d="M 540.9849070593797 123.54949594908454 L 551 119 L 540.7012804308954 115.13523930405225" stroke-miterlimit="10"/></g><g transform="translate(-62,-14) scale(1,1)"><path fill="#ffffff" stroke="none" d="M 656 24 L 814.22998046875 24 L 824.22998046875 34 L 824.22998046875 72 L 656 72 L 656 24"/></g><g transform="translate(-62,-14) scale(1,1)"><path fill="none" stroke="#000000" d="M 656 24 L 814.22998046875 24 L 824.22998046875 34 L 824.22998046875 72 L 656 72 L 656 24 L 656 24" stroke-miterlimit="10"/></g><g transform="translate(-62,-14) scale(1,1)"><path fill="none" stroke="#000000" d="M 814.22998046875 24 L 814.22998046875 34 L 824.22998046875 34 L 814.22998046875 24" stroke-miterlimit="10"/></g><g transform="translate(-62,-14) scale(1,1)"><g><path fill="none" stroke="none"/><text fill="#000000" stroke="none" font-family="Arial" font-size="13px" font-style="normal" font-weight="normal" text-decoration="none" x="661" y="42">高级：车行客服1对多管理</text></g></g><g transform="translate(-62,-14) scale(1,1)"><path fill="none" stroke="#000000" d="M 677 95 L 705 74" stroke-miterlimit="10" stroke-dasharray="3"/></g><g transform="translate(-62,-14) scale(1,1)"><path fill="#C0C0C0" stroke="none" d="M 497 175 L 741.3818359375 175 Q 751.3818359375 175 751.3818359375 185 L 751.3818359375 205 Q 751.3818359375 215 741.3818359375 215 L 497 215 Q 487 215 487 205 L 487 185 Q 487 175 497 175 Z" opacity="0.2"/></g><g transform="translate(-62,-14) scale(1,1)"><path fill="#ffffff" stroke="none" d="M 490 168 L 734.3818359375 168 Q 744.3818359375 168 744.3818359375 178 L 744.3818359375 198 Q 744.3818359375 208 734.3818359375 208 L 490 208 Q 480 208 480 198 L 480 178 Q 480 168 490 168 Z"/></g><g transform="translate(-62,-14) scale(1,1)"><path fill="none" stroke="#000000" d="M 490 168 L 734.3818359375 168 Q 744.3818359375 168 744.3818359375 178 L 744.3818359375 198 Q 744.3818359375 208 734.3818359375 208 L 490 208 Q 480 208 480 198 L 480 178 Q 480 168 490 168 Z" stroke-miterlimit="10"/></g><g transform="translate(-62,-14) scale(1,1)"><g><path fill="none" stroke="none"/><text fill="#000000" stroke="none" font-family="Arial" font-size="13px" font-style="normal" font-weight="bold" text-decoration="none" x="494.4482421875" y="187.5">AppController：发送预约单给客服微信号</text></g></g><g transform="translate(-62,-14) scale(1,1)"><path fill="#C0C0C0" stroke="none" d="M 289 349 L 575.3818359375 349 Q 585.3818359375 349 585.3818359375 359 L 585.3818359375 379 Q 585.3818359375 389 575.3818359375 389 L 289 389 Q 279 389 279 379 L 279 359 Q 279 349 289 349 Z" opacity="0.2"/></g><g transform="translate(-62,-14) scale(1,1)"><path fill="#ffffff" stroke="none" d="M 282 342 L 568.3818359375 342 Q 578.3818359375 342 578.3818359375 352 L 578.3818359375 372 Q 578.3818359375 382 568.3818359375 382 L 282 382 Q 272 382 272 372 L 272 352 Q 272 342 282 342 Z"/></g><g transform="translate(-62,-14) scale(1,1)"><path fill="none" stroke="#000000" d="M 282 342 L 568.3818359375 342 Q 578.3818359375 342 578.3818359375 352 L 578.3818359375 372 Q 578.3818359375 382 568.3818359375 382 L 282 382 Q 272 382 272 372 L 272 352 Q 272 342 282 342 Z" stroke-miterlimit="10"/></g><g transform="translate(-62,-14) scale(1,1)"><g><path fill="none" stroke="none"/><text fill="#000000" stroke="none" font-family="Arial" font-size="13px" font-style="normal" font-weight="bold" text-decoration="none" x="287.9482421875" y="361.5">AppController：自动应答受理通知给用户微信号</text></g></g><g transform="translate(-62,-14) scale(1,1)"><path fill="none" stroke="#000000" d="M 589 209 L 448 341" stroke-miterlimit="10"/></g><g transform="translate(-62,-14) scale(1,1)"><path fill="none" stroke="#000000" d="M 452.54208343783614 330.9815431306146 L 448 341 L 458.2958567889764 337.12761921024173" stroke-miterlimit="10"/></g><g transform="translate(-62,-14) scale(1,1)"><path fill="#ffffff" stroke="none" d="M 312 248 L 418.95361328125 248 L 428.95361328125 258 L 428.95361328125 296 L 312 296 L 312 248"/></g><g transform="translate(-62,-14) scale(1,1)"><path fill="none" stroke="#000000" d="M 312 248 L 418.95361328125 248 L 428.95361328125 258 L 428.95361328125 296 L 312 296 L 312 248 L 312 248" stroke-miterlimit="10"/></g><g transform="translate(-62,-14) scale(1,1)"><path fill="none" stroke="#000000" d="M 418.95361328125 248 L 418.95361328125 258 L 428.95361328125 258 L 418.95361328125 248" stroke-miterlimit="10"/></g><g transform="translate(-62,-14) scale(1,1)"><g><path fill="none" stroke="none"/><text fill="#000000" stroke="none" font-family="Arial" font-size="13px" font-style="normal" font-weight="normal" text-decoration="none" x="317" y="266">微信异步应答API</text></g></g><g transform="translate(-62,-14) scale(1,1)"><path fill="none" stroke="#000000" d="M 412 341 L 386 298" stroke-miterlimit="10" stroke-dasharray="3"/></g><g transform="translate(-62,-14) scale(1,1)"><rect fill="#C0C0C0" stroke="none" x="615" y="311" width="345.4599609375" height="32" opacity="0.2"/></g><g transform="translate(-62,-14) scale(1,1)"><rect fill="#ffffff" stroke="none" x="608" y="304" width="345.4599609375" height="32"/></g><g transform="translate(-62,-14) scale(1,1)"><path fill="none" stroke="#0000ff" d="M 608 304 L 953.4599609375 304 L 953.4599609375 336 L 608 336 L 608 304 Z Z" stroke-miterlimit="10"/></g><g transform="translate(-62,-14) scale(1,1)"><rect fill="#ffffff" stroke="none" x="608" y="304" width="345.4599609375" height="32"/></g><g transform="translate(-62,-14) scale(1,1)"><path fill="none" stroke="#0000ff" d="M 608 304 L 953.4599609375 304 L 953.4599609375 336 L 608 336 L 608 304 Z Z" stroke-miterlimit="10"/></g><g transform="translate(-62,-14) scale(1,1)"><g><path fill="none" stroke="none"/><text fill="#0000a0" stroke="none" font-family="Arial" font-size="13px" font-style="normal" font-weight="bold" text-decoration="none" x="624.364990234375" y="323.5">客服端图文模板消息中的2c预约受理结果发送服务链接</text></g></g><g transform="translate(-62,-14) scale(1,1)"><path fill="none" stroke="#000000" d="M 649 209 L 687 231" stroke-miterlimit="10"/></g><g transform="translate(-62,-14) scale(1,1)"><path fill="none" stroke="#000000" d="M 676.0958329701606 229.5511586058638 L 687 231 L 680.3140751246673 222.26510397535228" stroke-miterlimit="10"/></g><g transform="translate(-62,-14) scale(1,1)"><path fill="#C0C0C0" stroke="none" d="M 625 391 L 754 391 Q 764 391 764 401 L 764 421 Q 764 431 754 431 L 625 431 Q 615 431 615 421 L 615 401 Q 615 391 625 391 Z" opacity="0.2"/></g><g transform="translate(-62,-14) scale(1,1)"><path fill="#ffffff" stroke="none" d="M 618 384 L 747 384 Q 757 384 757 394 L 757 414 Q 757 424 747 424 L 618 424 Q 608 424 608 414 L 608 394 Q 608 384 618 384 Z"/></g><g transform="translate(-62,-14) scale(1,1)"><path fill="none" stroke="#000000" d="M 618 384 L 747 384 Q 757 384 757 394 L 757 414 Q 757 424 747 424 L 618 424 Q 608 424 608 414 L 608 394 Q 608 384 618 384 Z" stroke-miterlimit="10"/></g><g transform="translate(-62,-14) scale(1,1)"><g><path fill="none" stroke="none"/><text fill="#000000" stroke="none" font-family="Arial" font-size="13px" font-style="normal" font-weight="bold" text-decoration="none" x="617.5" y="403.5">客服微信号：点击链接</text></g></g><g transform="translate(-62,-14) scale(1,1)"><path fill="none" stroke="#000000" d="M 760 337 L 707 383" stroke-miterlimit="10"/></g><g transform="translate(-62,-14) scale(1,1)"><path fill="none" stroke="#000000" d="M 711.9158177557871 373.15953579388207 L 707 383 L 717.4342670403638 379.5177491000248" stroke-miterlimit="10"/></g><g transform="translate(-62,-14) scale(1,1)"><path fill="#C0C0C0" stroke="none" d="M 569 463 L 782 463 Q 792 463 792 473 L 792 493 Q 792 503 782 503 L 569 503 Q 559 503 559 493 L 559 473 Q 559 463 569 463 Z" opacity="0.2"/></g><g transform="translate(-62,-14) scale(1,1)"><path fill="#ffffff" stroke="none" d="M 562 456 L 775 456 Q 785 456 785 466 L 785 486 Q 785 496 775 496 L 562 496 Q 552 496 552 486 L 552 466 Q 552 456 562 456 Z"/></g><g transform="translate(-62,-14) scale(1,1)"><path fill="none" stroke="#000000" d="M 562 456 L 775 456 Q 785 456 785 466 L 785 486 Q 785 496 775 496 L 562 496 Q 552 496 552 486 L 552 466 Q 552 456 562 456 Z" stroke-miterlimit="10"/></g><g transform="translate(-62,-14) scale(1,1)"><g><path fill="none" stroke="none"/><text fill="#000000" stroke="none" font-family="Arial" font-size="13px" font-style="normal" font-weight="bold" text-decoration="none" x="564.5" y="475.5">客服微信号：填写预约受理结果表单</text></g></g><g transform="translate(-62,-14) scale(1,1)"><path fill="none" stroke="#000000" d="M 678 425 L 672 455" stroke-miterlimit="10"/></g><g transform="translate(-62,-14) scale(1,1)"><path fill="none" stroke="#000000" d="M 669.8652927502162 444.20912306817837 L 672 455 L 678.1208362812703 445.8602317743892" stroke-miterlimit="10"/></g><g transform="translate(-62,-14) scale(1,1)"><path fill="#C0C0C0" stroke="none" d="M 609 519 L 738 519 Q 748 519 748 529 L 748 549 Q 748 559 738 559 L 609 559 Q 599 559 599 549 L 599 529 Q 599 519 609 519 Z" opacity="0.2"/></g><g transform="translate(-62,-14) scale(1,1)"><path fill="#ffffff" stroke="none" d="M 602 512 L 731 512 Q 741 512 741 522 L 741 542 Q 741 552 731 552 L 602 552 Q 592 552 592 542 L 592 522 Q 592 512 602 512 Z"/></g><g transform="translate(-62,-14) scale(1,1)"><path fill="none" stroke="#000000" d="M 602 512 L 731 512 Q 741 512 741 522 L 741 542 Q 741 552 731 552 L 602 552 Q 592 552 592 542 L 592 522 Q 592 512 602 512 Z" stroke-miterlimit="10"/></g><g transform="translate(-62,-14) scale(1,1)"><g><path fill="none" stroke="none"/><text fill="#000000" stroke="none" font-family="Arial" font-size="13px" font-style="normal" font-weight="bold" text-decoration="none" x="601.5" y="531.5">客服微信号：提交表单</text></g></g><g transform="translate(-62,-14) scale(1,1)"><path fill="none" stroke="#000000" d="M 667 497 L 667 511" stroke-miterlimit="10"/></g><g transform="translate(-62,-14) scale(1,1)"><path fill="none" stroke="#000000" d="M 662.790482243984 500.83732514237585 L 667 511 L 671.209517756016 500.83732514237585" stroke-miterlimit="10"/></g><g transform="translate(-62,-14) scale(1,1)"><path fill="#C0C0C0" stroke="none" d="M 521 583 L 807.3818359375 583 Q 817.3818359375 583 817.3818359375 593 L 817.3818359375 613 Q 817.3818359375 623 807.3818359375 623 L 521 623 Q 511 623 511 613 L 511 593 Q 511 583 521 583 Z" opacity="0.2"/></g><g transform="translate(-62,-14) scale(1,1)"><path fill="#ffffff" stroke="none" d="M 514 576 L 800.3818359375 576 Q 810.3818359375 576 810.3818359375 586 L 810.3818359375 606 Q 810.3818359375 616 800.3818359375 616 L 514 616 Q 504 616 504 606 L 504 586 Q 504 576 514 576 Z"/></g><g transform="translate(-62,-14) scale(1,1)"><path fill="none" stroke="#000000" d="M 514 576 L 800.3818359375 576 Q 810.3818359375 576 810.3818359375 586 L 810.3818359375 606 Q 810.3818359375 616 800.3818359375 616 L 514 616 Q 504 616 504 606 L 504 586 Q 504 576 514 576 Z" stroke-miterlimit="10"/></g><g transform="translate(-62,-14) scale(1,1)"><g><path fill="none" stroke="none"/><text fill="#000000" stroke="none" font-family="Arial" font-size="13px" font-style="normal" font-weight="bold" text-decoration="none" x="519.9482421875" y="595.5">AppController：应答制定用户微信号的预约请求</text></g></g><g transform="translate(-62,-14) scale(1,1)"><path fill="none" stroke="#000000" d="M 663 553 L 660 575" stroke-miterlimit="10"/></g><g transform="translate(-62,-14) scale(1,1)"><path fill="none" stroke="#000000" d="M 657.2021943830974 564.3617537286436 L 660 575 L 665.544028754255 565.4992765974378" stroke-miterlimit="10"/></g><g transform="translate(-62,-14) scale(1,1)"><path fill="#C0C0C0" stroke="none" d="M 625 239 L 838 239 Q 848 239 848 249 L 848 269 Q 848 279 838 279 L 625 279 Q 615 279 615 269 L 615 249 Q 615 239 625 239 Z" opacity="0.2"/></g><g transform="translate(-62,-14) scale(1,1)"><path fill="#ffffff" stroke="none" d="M 618 232 L 831 232 Q 841 232 841 242 L 841 262 Q 841 272 831 272 L 618 272 Q 608 272 608 262 L 608 242 Q 608 232 618 232 Z"/></g><g transform="translate(-62,-14) scale(1,1)"><path fill="none" stroke="#000000" d="M 618 232 L 831 232 Q 841 232 841 242 L 841 262 Q 841 272 831 272 L 618 272 Q 608 272 608 262 L 608 242 Q 608 232 618 232 Z" stroke-miterlimit="10"/></g><g transform="translate(-62,-14) scale(1,1)"><g><path fill="none" stroke="none"/><text fill="#000000" stroke="none" font-family="Arial" font-size="13px" font-style="normal" font-weight="bold" text-decoration="none" x="620.5" y="251.5">车行公众号：转发消息到客服微信号</text></g></g><g transform="translate(-62,-14) scale(1,1)"><path fill="none" stroke="#000000" d="M 638 137 L 623 167" stroke-miterlimit="10"/></g><g transform="translate(-62,-14) scale(1,1)"><path fill="none" stroke="#000000" d="M 623.7797792209975 156.02767370306094 L 623 167 L 631.3099935049528 159.79278084503858" stroke-miterlimit="10"/></g><g transform="translate(-62,-14) scale(1,1)"><path fill="#ffffff" stroke="none" d="M 887 160 L 993.95361328125 160 L 1003.95361328125 170 L 1003.95361328125 208 L 887 208 L 887 160"/></g><g transform="translate(-62,-14) scale(1,1)"><path fill="none" stroke="#000000" d="M 887 160 L 993.95361328125 160 L 1003.95361328125 170 L 1003.95361328125 208 L 887 208 L 887 160 L 887 160" stroke-miterlimit="10"/></g><g transform="translate(-62,-14) scale(1,1)"><path fill="none" stroke="#000000" d="M 993.95361328125 160 L 993.95361328125 170 L 1003.95361328125 170 L 993.95361328125 160" stroke-miterlimit="10"/></g><g transform="translate(-62,-14) scale(1,1)"><g><path fill="none" stroke="none"/><text fill="#000000" stroke="none" font-family="Arial" font-size="13px" font-style="normal" font-weight="normal" text-decoration="none" x="892" y="178">微信模板消息API</text></g></g><g transform="translate(-62,-14) scale(1,1)"><path fill="none" stroke="#000000" d="M 792 231 L 886 202" stroke-miterlimit="10" stroke-dasharray="3"/></g><g transform="translate(-62,-14) scale(1,1)"><path fill="none" stroke="#000000" d="M 741 273 L 766 303" stroke-miterlimit="10"/></g><g transform="translate(-62,-14) scale(1,1)"><path fill="none" stroke="#000000" d="M 756.260172980272 297.88768451425597 L 766 303 L 762.727855214301 292.49794931923185" stroke-miterlimit="10"/></g><g transform="translate(-62,-14) scale(1,1)"><path fill="#C0C0C0" stroke="none" d="M 337 583 L 466 583 Q 476 583 476 593 L 476 613 Q 476 623 466 623 L 337 623 Q 327 623 327 613 L 327 593 Q 327 583 337 583 Z" opacity="0.2"/></g><g transform="translate(-62,-14) scale(1,1)"><path fill="#ffffff" stroke="none" d="M 330 576 L 459 576 Q 469 576 469 586 L 469 606 Q 469 616 459 616 L 330 616 Q 320 616 320 606 L 320 586 Q 320 576 330 576 Z"/></g><g transform="translate(-62,-14) scale(1,1)"><path fill="none" stroke="#000000" d="M 330 576 L 459 576 Q 469 576 469 586 L 469 606 Q 469 616 459 616 L 330 616 Q 320 616 320 606 L 320 586 Q 320 576 330 576 Z" stroke-miterlimit="10"/></g><g transform="translate(-62,-14) scale(1,1)"><g><path fill="none" stroke="none"/><text fill="#000000" stroke="none" font-family="Arial" font-size="13px" font-style="normal" font-weight="bold" text-decoration="none" x="329.5" y="595.5">车主公众号：转发消息</text></g></g><g transform="translate(-62,-14) scale(1,1)"><path fill="none" stroke="#000000" d="M 503 596 L 470 596" stroke-miterlimit="10"/></g><g transform="translate(-62,-14) scale(1,1)"><path fill="none" stroke="#000000" d="M 480.16267485762415 591.790482243984 L 470 596 L 480.16267485762415 600.209517756016" stroke-miterlimit="10"/></g><g transform="translate(-62,-14) scale(1,1)"><path fill="#C0C0C0" stroke="none" d="M 89 583 L 274 583 Q 284 583 284 593 L 284 613 Q 284 623 274 623 L 89 623 Q 79 623 79 613 L 79 593 Q 79 583 89 583 Z" opacity="0.2"/></g><g transform="translate(-62,-14) scale(1,1)"><path fill="#ffffff" stroke="none" d="M 82 576 L 267 576 Q 277 576 277 586 L 277 606 Q 277 616 267 616 L 82 616 Q 72 616 72 606 L 72 586 Q 72 576 82 576 Z"/></g><g transform="translate(-62,-14) scale(1,1)"><path fill="none" stroke="#000000" d="M 82 576 L 267 576 Q 277 576 277 586 L 277 606 Q 277 616 267 616 L 82 616 Q 72 616 72 606 L 72 586 Q 72 576 82 576 Z" stroke-miterlimit="10"/></g><g transform="translate(-62,-14) scale(1,1)"><g><path fill="none" stroke="none"/><text fill="#000000" stroke="none" font-family="Arial" font-size="13px" font-style="normal" font-weight="bold" text-decoration="none" x="83.5" y="595.5">用户微信号：收到预约结果通知</text></g></g><g transform="translate(-62,-14) scale(1,1)"><path fill="none" stroke="#000000" d="M 319 596 L 278 596" stroke-miterlimit="10"/></g><g transform="translate(-62,-14) scale(1,1)"><path fill="none" stroke="#000000" d="M 288.16267485762415 591.790482243984 L 278 596 L 288.16267485762415 600.209517756016" stroke-miterlimit="10"/></g><g transform="translate(-62,-14) scale(1,1)"><path fill="none" stroke="#000000" d="M 92 129 L 111 130" stroke-miterlimit="10"/></g><g transform="translate(-62,-14) scale(1,1)"><path fill="none" stroke="#000000" d="M 100.63012435220153 133.66956115212656 L 111 130 L 101.07261903473305 125.26216218402789" stroke-miterlimit="10"/></g><g transform="translate(-62,-14) scale(1,1)"><path fill="#C0C0C0" stroke="none" d="M 159 675.5 C 159 668.59644 164.59644 663 171.5 663 C 178.40356 663 184 668.59644 184 675.5 C 184 682.40356 178.40356 688 171.5 688 C 164.59644 688 159 682.40356 159 675.5 Z" opacity="0.2"/></g><g transform="translate(-62,-14) scale(1,1)"><path fill="none" stroke="#000000" d="M 152 668.5 C 152 661.59644 157.59644 656 164.5 656 C 171.40356 656 177 661.59644 177 668.5 C 177 675.40356 171.40356 681 164.5 681 C 157.59644 681 152 675.40356 152 668.5 Z" stroke-miterlimit="10"/></g><g transform="translate(-62,-14) scale(1,1)"><path fill="#000000" stroke="none" d="M 157 668.5 C 157 664.357864 160.357864 661 164.5 661 C 168.642136 661 172 664.357864 172 668.5 C 172 672.642136 168.642136 676 164.5 676 C 160.357864 676 157 672.642136 157 668.5 Z"/></g><g transform="translate(-62,-14) scale(1,1)"><path fill="none" stroke="#000000" d="M 171 617 L 166 655" stroke-miterlimit="10"/></g><g transform="translate(-62,-14) scale(1,1)"><path fill="none" stroke="#000000" d="M 163.1522223336082 644.3750217711846 L 166 655 L 171.4993112563375 645.473322945228" stroke-miterlimit="10"/></g></g></svg>