<svg version="1.1" xmlns="http://www.w3.org/2000/svg" xmlns:xlink="http://www.w3.org/1999/xlink" width="789.591796875" height="708"><defs/><g><g transform="translate(-30,-46) scale(1,1)"><rect fill="#C0C0C0" stroke="none" x="231" y="503" width="116" height="24" opacity="0.2"/></g><g transform="translate(-30,-46) scale(1,1)"><rect fill="#ffffff" stroke="none" x="224" y="496" width="116" height="24"/></g><g transform="translate(-30,-46) scale(1,1)"><path fill="none" stroke="#000000" d="M 224 496 L 340 496 L 340 520 L 224 520 L 224 496 Z Z" stroke-miterlimit="10"/></g><g transform="translate(-30,-46) scale(1,1)"><g><path fill="none" stroke="none"/><text fill="#000000" stroke="none" font-family="Arial" font-size="13px" font-style="normal" font-weight="bold" text-decoration="none" x="249.5" y="515.5">车主公众号</text></g></g><g transform="translate(-30,-46) scale(1,1)"><rect fill="#C0C0C0" stroke="none" x="575" y="511" width="116" height="24" opacity="0.2"/></g><g transform="translate(-30,-46) scale(1,1)"><rect fill="#ffffff" stroke="none" x="568" y="504" width="116" height="24"/></g><g transform="translate(-30,-46) scale(1,1)"><path fill="none" stroke="#000000" d="M 568 504 L 684 504 L 684 528 L 568 528 L 568 504 Z Z" stroke-miterlimit="10"/></g><g transform="translate(-30,-46) scale(1,1)"><g><path fill="none" stroke="none"/><text fill="#000000" stroke="none" font-family="Arial" font-size="13px" font-style="normal" font-weight="bold" text-decoration="none" x="593.5" y="523.5">车行公众号</text></g></g><g transform="translate(-30,-46) scale(1,1)"><rect fill="#C0C0C0" stroke="none" x="415" y="655" width="116" height="24" opacity="0.2"/></g><g transform="translate(-30,-46) scale(1,1)"><rect fill="#ffffff" stroke="none" x="408" y="648" width="116" height="24"/></g><g transform="translate(-30,-46) scale(1,1)"><path fill="none" stroke="#000000" d="M 408 648 L 524 648 L 524 672 L 408 672 L 408 648 Z Z" stroke-miterlimit="10"/></g><g transform="translate(-30,-46) scale(1,1)"><g><path fill="none" stroke="none"/><text fill="#000000" stroke="none" font-family="Arial" font-size="13px" font-style="normal" font-weight="bold" text-decoration="none" x="433.5" y="667.5">应用服务器</text></g></g><g transform="translate(-30,-46) scale(1,1)"><rect fill="#C0C0C0" stroke="none" x="415" y="727" width="116" height="24" opacity="0.2"/></g><g transform="translate(-30,-46) scale(1,1)"><rect fill="#ffffff" stroke="none" x="408" y="720" width="116" height="24"/></g><g transform="translate(-30,-46) scale(1,1)"><path fill="none" stroke="#000000" d="M 408 720 L 524 720 L 524 744 L 408 744 L 408 720 Z Z" stroke-miterlimit="10"/></g><g transform="translate(-30,-46) scale(1,1)"><g><path fill="none" stroke="none"/><text fill="#000000" stroke="none" font-family="Arial" font-size="13px" font-style="normal" font-weight="bold" text-decoration="none" x="453" y="739.5">存储</text></g></g><g transform="translate(-30,-46) scale(1,1)"><rect fill="#C0C0C0" stroke="none" x="231" y="335" width="118.10986328125" height="24" opacity="0.2"/></g><g transform="translate(-30,-46) scale(1,1)"><rect fill="#ffffff" stroke="none" x="224" y="328" width="118.10986328125" height="24"/></g><g transform="translate(-30,-46) scale(1,1)"><path fill="none" stroke="#000000" d="M 224 328 L 342.10986328125 328 L 342.10986328125 352 L 224 352 L 224 328 Z Z" stroke-miterlimit="10"/></g><g transform="translate(-30,-46) scale(1,1)"><g><path fill="none" stroke="none"/><text fill="#000000" stroke="none" font-family="Arial" font-size="13px" font-style="normal" font-weight="bold" text-decoration="none" x="250.554931640625" y="347.5">车主微信号</text></g></g><g transform="translate(-30,-46) scale(1,1)"><rect fill="#C0C0C0" stroke="none" x="567" y="335" width="118.10986328125" height="24" opacity="0.2"/></g><g transform="translate(-30,-46) scale(1,1)"><rect fill="#ffffff" stroke="none" x="560" y="328" width="118.10986328125" height="24"/></g><g transform="translate(-30,-46) scale(1,1)"><path fill="none" stroke="#000000" d="M 560 328 L 678.10986328125 328 L 678.10986328125 352 L 560 352 L 560 328 Z Z" stroke-miterlimit="10"/></g><g transform="translate(-30,-46) scale(1,1)"><g><path fill="none" stroke="none"/><text fill="#000000" stroke="none" font-family="Arial" font-size="13px" font-style="normal" font-weight="bold" text-decoration="none" x="586.554931640625" y="347.5">客服微信号</text></g></g><g transform="translate(-30,-46) scale(1,1)"><path fill="#C0C0C0" stroke="none" d="M 47 80 C 47 70.6111584 68.7141872 63 95.5 63 C 122.2858128 63 144 70.6111584 144 80 C 144 89.3888416 122.2858128 97 95.5 97 C 68.7141872 97 47 89.3888416 47 80 Z" opacity="0.2"/></g><g transform="translate(-30,-46) scale(1,1)"><path fill="#ffffff" stroke="none" d="M 40 73 C 40 63.6111584 61.7141872 56 88.5 56 C 115.2858128 56 137 63.6111584 137 73 C 137 82.3888416 115.2858128 90 88.5 90 C 61.7141872 90 40 82.3888416 40 73 Z"/></g><g transform="translate(-30,-46) scale(1,1)"><path fill="none" stroke="#000000" d="M 40 73 C 40 63.6111584 61.7141872 56 88.5 56 C 115.2858128 56 137 63.6111584 137 73 C 137 82.3888416 115.2858128 90 88.5 90 C 61.7141872 90 40 82.3888416 40 73 Z" stroke-miterlimit="10"/></g><g transform="translate(-30,-46) scale(1,1)"><g><path fill="none" stroke="none"/><text fill="#000000" stroke="none" font-family="Arial" font-size="13px" font-style="normal" font-weight="bold" text-decoration="none" x="75.5" y="80">预订</text></g></g><g transform="translate(-30,-46) scale(1,1)"><path fill="#ffffff" stroke="none" d="M 271.82072727272725 225.68 C 271.82072727272725 220.886167936 275.70656959767274 217 280.5 217 C 285.29343040232726 217 289.17927272727275 220.886167936 289.17927272727275 225.68 C 289.17927272727275 230.47383206400002 285.29343040232726 234.36 280.5 234.36 C 275.70656959767274 234.36 271.82072727272725 230.47383206400002 271.82072727272725 225.68 Z"/></g><g transform="translate(-30,-46) scale(1,1)"><path fill="none" stroke="#000000" d="M 271.82072727272725 225.68 C 271.82072727272725 220.886167936 275.70656959767274 217 280.5 217 C 285.29343040232726 217 289.17927272727275 220.886167936 289.17927272727275 225.68 C 289.17927272727275 230.47383206400002 285.29343040232726 234.36 280.5 234.36 C 275.70656959767274 234.36 271.82072727272725 230.47383206400002 271.82072727272725 225.68 Z" stroke-miterlimit="10"/></g><g transform="translate(-30,-46) scale(1,1)"><path fill="none" stroke="#000000" d="M 280.5 234.36 L 280.5 251.64" stroke-miterlimit="10"/></g><g transform="translate(-30,-46) scale(1,1)"><path fill="none" stroke="#000000" d="M 271.31018181818183 240.84 L 289.68981818181817 240.84" stroke-miterlimit="10"/></g><g transform="translate(-30,-46) scale(1,1)"><path fill="none" stroke="#000000" d="M 280.5 251.64 L 267.73636363636365 269" stroke-miterlimit="10"/></g><g transform="translate(-30,-46) scale(1,1)"><path fill="none" stroke="#000000" d="M 280.5 251.64 L 293.26363636363635 269" stroke-miterlimit="10"/></g><g transform="translate(-30,-46) scale(1,1)"><g><path fill="none" stroke="none"/><text fill="#000000" stroke="none" font-family="Arial" font-size="13px" font-style="normal" font-weight="bold" text-decoration="none" x="267.5" y="289.5">车主</text></g></g><g transform="translate(-30,-46) scale(1,1)"><path fill="#ffffff" stroke="none" d="M 607.8207272727273 225.68 C 607.8207272727273 220.886167936 611.7065695976727 217 616.5 217 C 621.2934304023273 217 625.1792727272727 220.886167936 625.1792727272727 225.68 C 625.1792727272727 230.47383206400002 621.2934304023273 234.36 616.5 234.36 C 611.7065695976727 234.36 607.8207272727273 230.47383206400002 607.8207272727273 225.68 Z"/></g><g transform="translate(-30,-46) scale(1,1)"><path fill="none" stroke="#000000" d="M 607.8207272727273 225.68 C 607.8207272727273 220.886167936 611.7065695976727 217 616.5 217 C 621.2934304023273 217 625.1792727272727 220.886167936 625.1792727272727 225.68 C 625.1792727272727 230.47383206400002 621.2934304023273 234.36 616.5 234.36 C 611.7065695976727 234.36 607.8207272727273 230.47383206400002 607.8207272727273 225.68 Z" stroke-miterlimit="10"/></g><g transform="translate(-30,-46) scale(1,1)"><path fill="none" stroke="#000000" d="M 616.5 234.36 L 616.5 251.64" stroke-miterlimit="10"/></g><g transform="translate(-30,-46) scale(1,1)"><path fill="none" stroke="#000000" d="M 607.3101818181818 240.84 L 625.6898181818182 240.84" stroke-miterlimit="10"/></g><g transform="translate(-30,-46) scale(1,1)"><path fill="none" stroke="#000000" d="M 616.5 251.64 L 603.7363636363636 269" stroke-miterlimit="10"/></g><g transform="translate(-30,-46) scale(1,1)"><path fill="none" stroke="#000000" d="M 616.5 251.64 L 629.2636363636364 269" stroke-miterlimit="10"/></g><g transform="translate(-30,-46) scale(1,1)"><g><path fill="none" stroke="none"/><text fill="#000000" stroke="none" font-family="Arial" font-size="13px" font-style="normal" font-weight="bold" text-decoration="none" x="603.5" y="289.5">车行</text></g></g><g transform="translate(-30,-46) scale(1,1)"><path fill="none" stroke="#2b2bff" d="M 297 353 L 392 440 L 303 495" stroke-miterlimit="10" stroke-dasharray="3"/></g><g transform="translate(-30,-46) scale(1,1)"><path fill="none" stroke="#2b2bff" d="M 309.4321777142653 486.07659875091855 L 303 495 L 313.858034014028 493.23843894507996" stroke-miterlimit="10"/></g><g transform="translate(-30,-46) scale(1,1)"><g><path fill="none" stroke="none"/><text fill="#000000" stroke="none" font-family="Arial" font-size="13px" font-style="normal" font-weight="normal" text-decoration="none" x="331" y="459">+预约（微信定制菜单）</text></g></g><g transform="translate(-30,-46) scale(1,1)"><path fill="none" stroke="#000000" d="M 269 495 L 208 432 L 272 353" stroke-miterlimit="10" stroke-dasharray="3"/></g><g transform="translate(-30,-46) scale(1,1)"><path fill="none" stroke="#000000" d="M 268.8736496260553 363.5463706240268 L 272 353 L 262.33192626506263 358.24674663537456" stroke-miterlimit="10"/></g><g transform="translate(-30,-46) scale(1,1)"><g><path fill="none" stroke="none"/><text fill="#000000" stroke="none" font-family="Arial" font-size="13px" font-style="normal" font-weight="normal" text-decoration="none" x="115" y="429">+预约受理通知（微信应答）</text></g></g><g transform="translate(-30,-46) scale(1,1)"><path fill="none" stroke="#0000ff" d="M 285 521 L 304 616 L 418 647" stroke-miterlimit="10" stroke-dasharray="3"/></g><g transform="translate(-30,-46) scale(1,1)"><path fill="none" stroke="#0000ff" d="M 407.0888544399036 648.3953145044719 L 418 647 L 409.29801863594236 640.2712913319424" stroke-miterlimit="10"/></g><g transform="translate(-30,-46) scale(1,1)"><g><path fill="none" stroke="none"/><text fill="#000000" stroke="none" font-family="Arial" font-size="13px" font-style="normal" font-weight="normal" text-decoration="none" x="194" y="608">+预约消息（微信http post，24小时内）</text></g></g><g transform="translate(-30,-46) scale(1,1)"><path fill="none" stroke="#0000ff" d="M 457 647 L 384 544 L 319 521" stroke-miterlimit="10" stroke-dasharray="3"/></g><g transform="translate(-30,-46) scale(1,1)"><path fill="none" stroke="#0000ff" d="M 329.98478519337993 520.4216452167567 L 319 521 L 327.17637468927956 528.3584575109536" stroke-miterlimit="10"/></g><g transform="translate(-30,-46) scale(1,1)"><g><path fill="none" stroke="none"/><text fill="#000000" stroke="none" font-family="Arial" font-size="13px" font-style="normal" font-weight="normal" text-decoration="none" x="271" y="565">+预约受理通知（异步微信应答消息）</text></g></g><g transform="translate(-30,-46) scale(1,1)"><path fill="none" stroke="#000000" d="M 466 673 L 466 719" stroke-miterlimit="10" stroke-dasharray="3"/></g><g transform="translate(-30,-46) scale(1,1)"><path fill="none" stroke="#000000" d="M 461.790482243984 708.8373251423759 L 466 719 L 470.209517756016 708.8373251423759" stroke-miterlimit="10"/></g><g transform="translate(-30,-46) scale(1,1)"><g><path fill="none" stroke="none"/><text fill="#000000" stroke="none" font-family="Arial" font-size="13px" font-style="normal" font-weight="normal" text-decoration="none" x="418" y="701">+车主车行微信号关联</text></g></g><g transform="translate(-30,-46) scale(1,1)"><path fill="none" stroke="#2b2bff" d="M 485 647 L 560 597 L 615 529" stroke-miterlimit="10" stroke-dasharray="3"/></g><g transform="translate(-30,-46) scale(1,1)"><path fill="none" stroke="#2b2bff" d="M 611.8819529532569 539.5488284948755 L 615 529 L 605.336059626889 534.2543559514896" stroke-miterlimit="10"/></g><g transform="translate(-30,-46) scale(1,1)"><g><path fill="none" stroke="none"/><text fill="#000000" stroke="none" font-family="Arial" font-size="13px" font-style="normal" font-weight="normal" text-decoration="none" x="467" y="594">+预约通知（微信模板消息）</text></g></g><g transform="translate(-30,-46) scale(1,1)"><path fill="none" stroke="#000000" d="M 607 503 L 560 472 L 613 353" stroke-miterlimit="10" stroke-dasharray="3"/></g><g transform="translate(-30,-46) scale(1,1)"><path fill="none" stroke="#000000" d="M 612.7106819871602 363.9961945730078 L 613 353 L 605.019937521381 360.5709050210221" stroke-miterlimit="10"/></g><g transform="translate(-30,-46) scale(1,1)"><g><path fill="none" stroke="none"/><text fill="#000000" stroke="none" font-family="Arial" font-size="13px" font-style="normal" font-weight="normal" text-decoration="none" x="465" y="472">+预约处理通知（微信消息）</text></g></g><g transform="translate(-30,-46) scale(1,1)"><path fill="none" stroke="#2b2bff" d="M 631 353 L 720 448 L 644 503" stroke-miterlimit="10" stroke-dasharray="3"/></g><g transform="translate(-30,-46) scale(1,1)"><path fill="none" stroke="#2b2bff" d="M 649.7650442239566 493.63174161885865 L 644 503 L 654.7008608938128 500.45214283538724" stroke-miterlimit="10"/></g><g transform="translate(-30,-46) scale(1,1)"><g><path fill="none" stroke="none"/><text fill="#000000" stroke="none" font-family="Arial" font-size="13px" font-style="normal" font-weight="normal" text-decoration="none" x="647" y="467">+预约受理（微信定制菜单）</text></g></g><g transform="translate(-30,-46) scale(1,1)"><path fill="none" stroke="#000000" d="M 281 296 L 283 327" stroke-miterlimit="10" stroke-dasharray="3"/></g><g transform="translate(-30,-46) scale(1,1)"><path fill="none" stroke="#000000" d="M 278.14491953483304 317.1294278951646 L 283 327 L 286.54648814939395 316.5873912103542" stroke-miterlimit="10"/></g><g transform="translate(-30,-46) scale(1,1)"><path fill="none" stroke="#000000" d="M 617 296 L 619 327" stroke-miterlimit="10" stroke-dasharray="3"/></g><g transform="translate(-30,-46) scale(1,1)"><path fill="none" stroke="#000000" d="M 614.1449195348331 317.1294278951646 L 619 327 L 622.546488149394 316.5873912103542" stroke-miterlimit="10"/></g></g></svg>